<?xml version="1.0" encoding="UTF-8"?>
<!DOCTYPE svg PUBLIC "-//W3C//DTD SVG 1.1//EN" "http://www.w3.org/Graphics/SVG/1.1/DTD/svg11.dtd">
<svg width="251mm" height="154mm" viewBox="0 0 25100 15400" version="1.1" xmlns="http://www.w3.org/2000/svg" xmlns:xlink="http://www.w3.org/1999/xlink" stroke-width="28.222" stroke-linejoin="round" xml:space="preserve">
 <path fill="rgb(0,69,134)" stroke="none" d="M 14684,5555 C 14650,5428 14613,5303 14573,5177 14330,4428 13972,3721 13510,3083 13050,2445 12491,1884 11857,1421 11222,957 10519,597 9773,353 9026,110 8247,-13 7462,-13 6678,-13 5898,110 5152,353 4406,597 3703,957 3068,1421 2433,1884 1875,2445 1414,3083 953,3721 596,4428 353,5177 111,5927 -13,6711 -13,7500 -13,8288 111,9072 353,9822 596,10571 953,11278 1414,11916 1875,12554 2433,13115 3068,13578 3703,14042 4406,14402 5152,14646 5898,14890 6678,15014 7462,15014 8247,15014 9026,14890 9773,14646 10519,14402 11222,14042 11857,13578 12491,13115 13050,12554 13510,11916 13628,11753 13740,11584 13845,11412 L 7462,7500 7462,7500 7462,7500 7462,7500 7462,7500 7462,7500 7462,7500 7462,7500 7462,7500 7462,7500 7462,7500 7462,7500 7462,7500 7462,7500 7462,7500 7462,7500 7462,7500 7462,7500 7462,7500 7462,7500 14684,5555 Z "/>
 <path fill="rgb(255,66,14)" stroke="none" d="M 16078,11734 C 16291,11383 16476,11013 16629,10630 L 9696,7822 9696,7822 16078,11734 Z "/>
 <path fill="rgb(255,211,32)" stroke="none" d="M 16629,10630 C 16706,10439 16775,10245 16836,10048 L 9696,7822 9696,7822 16629,10630 Z "/>
 <path fill="rgb(87,157,28)" stroke="none" d="M 16836,10048 C 16877,9917 16914,9784 16947,9651 L 9696,7822 9696,7822 16836,10048 Z "/>
 <path fill="rgb(126,0,33)" stroke="none" d="M 16947,9651 C 16980,9517 17009,9383 17035,9248 L 9696,7822 9696,7822 16947,9651 Z "/>
 <path fill="rgb(131,202,255)" stroke="none" d="M 17035,9248 C 17062,9113 17084,8978 17103,8842 L 9696,7822 9696,7822 17035,9248 Z "/>
 <path fill="rgb(49,64,4)" stroke="none" d="M 17103,8842 C 17121,8706 17136,8569 17146,8432 L 9696,7822 9696,7822 17103,8842 Z "/>
 <path fill="rgb(174,207,0)" stroke="none" d="M 17146,8432 C 17158,8295 17165,8158 17169,8020 L 9696,7822 9696,7822 17146,8432 Z "/>
 <path fill="rgb(75,31,111)" stroke="none" d="M 17169,8020 C 17172,7917 17172,7814 17171,7710 L 9696,7822 9696,7822 17169,8020 Z "/>
 <path fill="rgb(255,149,14)" stroke="none" d="M 17171,7710 C 17169,7608 17165,7505 17159,7402 L 9696,7822 9696,7822 17171,7710 Z "/>
 <path fill="rgb(197,0,11)" stroke="none" d="M 17159,7402 C 17154,7299 17146,7196 17136,7094 L 9696,7822 9696,7822 17159,7402 Z "/>
 <path fill="rgb(0,132,209)" stroke="none" d="M 17136,7094 C 17126,6991 17114,6888 17100,6787 L 9696,7822 9696,7822 17136,7094 Z "/>
 <path fill="rgb(0,69,134)" stroke="none" d="M 17100,6787 C 17086,6685 17069,6583 17051,6481 L 9696,7822 9696,7822 17100,6787 Z "/>
 <path fill="rgb(255,66,14)" stroke="none" d="M 17051,6481 C 17032,6379 17012,6279 16990,6178 L 9696,7822 9696,7822 17051,6481 Z "/>
 <path fill="rgb(255,211,32)" stroke="none" d="M 16990,6178 C 16967,6078 16943,5977 16917,5878 L 9696,7822 9696,7822 16990,6178 Z "/>
 <text class="SVGTextShape"><tspan class="TextParagraph"><tspan class="TextPosition" x="645" y="6761"><tspan font-family="Liberation Sans, sans-serif" font-size="346px" font-weight="400" lengthAdjust="spacingAndGlyphs" textLength="1544" fill="rgb(0,0,0)" stroke="none" style="white-space: pre">399 (87%)</tspan></tspan></tspan></text>
 <text class="SVGTextShape"><tspan class="TextParagraph"><tspan class="TextPosition" x="15073" y="11052"><tspan font-family="Liberation Sans, sans-serif" font-size="346px" font-weight="400" lengthAdjust="spacingAndGlyphs" textLength="1172" fill="rgb(0,0,0)" stroke="none" style="white-space: pre">12 (3%)</tspan></tspan></tspan></text>
 <text class="SVGTextShape"><tspan class="TextParagraph"><tspan class="TextPosition" x="15615" y="10216"><tspan font-family="Liberation Sans, sans-serif" font-size="346px" font-weight="400" lengthAdjust="spacingAndGlyphs" textLength="986" fill="rgb(0,0,0)" stroke="none" style="white-space: pre">6 (1%)</tspan></tspan></tspan></text>
 <text class="SVGTextShape"><tspan class="TextParagraph"><tspan class="TextPosition" x="15768" y="9735"><tspan font-family="Liberation Sans, sans-serif" font-size="346px" font-weight="400" lengthAdjust="spacingAndGlyphs" textLength="986" fill="rgb(0,0,0)" stroke="none" style="white-space: pre">4 (1%)</tspan></tspan></tspan></text>
 <text class="SVGTextShape"><tspan class="TextParagraph"><tspan class="TextPosition" x="15865" y="9342"><tspan font-family="Liberation Sans, sans-serif" font-size="346px" font-weight="400" lengthAdjust="spacingAndGlyphs" textLength="986" fill="rgb(0,0,0)" stroke="none" style="white-space: pre">4 (1%)</tspan></tspan></tspan></text>
 <text class="SVGTextShape"><tspan class="TextParagraph"><tspan class="TextPosition" x="15941" y="8946"><tspan font-family="Liberation Sans, sans-serif" font-size="346px" font-weight="400" lengthAdjust="spacingAndGlyphs" textLength="986" fill="rgb(0,0,0)" stroke="none" style="white-space: pre">4 (1%)</tspan></tspan></tspan></text>
 <text class="SVGTextShape"><tspan class="TextParagraph"><tspan class="TextPosition" x="15996" y="8546"><tspan font-family="Liberation Sans, sans-serif" font-size="346px" font-weight="400" lengthAdjust="spacingAndGlyphs" textLength="986" fill="rgb(0,0,0)" stroke="none" style="white-space: pre">4 (1%)</tspan></tspan></tspan></text>
 <text class="SVGTextShape"><tspan class="TextParagraph"><tspan class="TextPosition" x="16028" y="8337"><tspan font-family="Liberation Sans, sans-serif" font-size="346px" font-weight="400" lengthAdjust="spacingAndGlyphs" textLength="986" fill="rgb(0,0,0)" stroke="none" style="white-space: pre">4 (1%)</tspan></tspan></tspan></text>
 <text class="SVGTextShape"><tspan class="TextParagraph"><tspan class="TextPosition" x="16039" y="7983"><tspan font-family="Liberation Sans, sans-serif" font-size="346px" font-weight="400" lengthAdjust="spacingAndGlyphs" textLength="986" fill="rgb(0,0,0)" stroke="none" style="white-space: pre">3 (1%)</tspan></tspan></tspan></text>
 <text class="SVGTextShape"><tspan class="TextParagraph"><tspan class="TextPosition" x="16035" y="7679"><tspan font-family="Liberation Sans, sans-serif" font-size="346px" font-weight="400" lengthAdjust="spacingAndGlyphs" textLength="986" fill="rgb(0,0,0)" stroke="none" style="white-space: pre">3 (1%)</tspan></tspan></tspan></text>
 <text class="SVGTextShape"><tspan class="TextParagraph"><tspan class="TextPosition" x="16017" y="7377"><tspan font-family="Liberation Sans, sans-serif" font-size="346px" font-weight="400" lengthAdjust="spacingAndGlyphs" textLength="986" fill="rgb(0,0,0)" stroke="none" style="white-space: pre">3 (1%)</tspan></tspan></tspan></text>
 <text class="SVGTextShape"><tspan class="TextParagraph"><tspan class="TextPosition" x="15988" y="7269"><tspan font-family="Liberation Sans, sans-serif" font-size="346px" font-weight="400" lengthAdjust="spacingAndGlyphs" textLength="986" fill="rgb(0,0,0)" stroke="none" style="white-space: pre">3 (1%)</tspan></tspan></tspan></text>
 <text class="SVGTextShape"><tspan class="TextParagraph"><tspan class="TextPosition" x="15947" y="6969"><tspan font-family="Liberation Sans, sans-serif" font-size="346px" font-weight="400" lengthAdjust="spacingAndGlyphs" textLength="986" fill="rgb(0,0,0)" stroke="none" style="white-space: pre">3 (1%)</tspan></tspan></tspan></text>
 <text class="SVGTextShape"><tspan class="TextParagraph"><tspan class="TextPosition" x="15892" y="6670"><tspan font-family="Liberation Sans, sans-serif" font-size="346px" font-weight="400" lengthAdjust="spacingAndGlyphs" textLength="986" fill="rgb(0,0,0)" stroke="none" style="white-space: pre">3 (1%)</tspan></tspan></tspan></text>
 <text class="SVGTextShape"><tspan class="TextParagraph"><tspan class="TextPosition" x="15826" y="6375"><tspan font-family="Liberation Sans, sans-serif" font-size="346px" font-weight="400" lengthAdjust="spacingAndGlyphs" textLength="986" fill="rgb(0,0,0)" stroke="none" style="white-space: pre">3 (1%)</tspan></tspan></tspan></text>
 <path fill="rgb(0,69,134)" stroke="none" d="M 18546,4128 L 18443,4128 18443,3922 18649,3922 18649,4128 18546,4128 Z "/>
 <path fill="rgb(255,66,14)" stroke="none" d="M 18546,4616 L 18443,4616 18443,4409 18649,4409 18649,4616 18546,4616 Z "/>
 <path fill="rgb(255,211,32)" stroke="none" d="M 18546,5103 L 18443,5103 18443,4897 18649,4897 18649,5103 18546,5103 Z "/>
 <path fill="rgb(87,157,28)" stroke="none" d="M 18546,5590 L 18443,5590 18443,5384 18649,5384 18649,5590 18546,5590 Z "/>
 <path fill="rgb(126,0,33)" stroke="none" d="M 18546,6078 L 18443,6078 18443,5871 18649,5871 18649,6078 18546,6078 Z "/>
 <path fill="rgb(131,202,255)" stroke="none" d="M 18546,6565 L 18443,6565 18443,6359 18649,6359 18649,6565 18546,6565 Z "/>
 <path fill="rgb(49,64,4)" stroke="none" d="M 18546,7053 L 18443,7053 18443,6846 18649,6846 18649,7053 18546,7053 Z "/>
 <path fill="rgb(174,207,0)" stroke="none" d="M 18546,7540 L 18443,7540 18443,7334 18649,7334 18649,7540 18546,7540 Z "/>
 <path fill="rgb(75,31,111)" stroke="none" d="M 18546,8028 L 18443,8028 18443,7821 18649,7821 18649,8028 18546,8028 Z "/>
 <path fill="rgb(255,149,14)" stroke="none" d="M 18546,8515 L 18443,8515 18443,8309 18649,8309 18649,8515 18546,8515 Z "/>
 <path fill="rgb(197,0,11)" stroke="none" d="M 18546,9002 L 18443,9002 18443,8796 18649,8796 18649,9002 18546,9002 Z "/>
 <path fill="rgb(0,132,209)" stroke="none" d="M 18546,9490 L 18443,9490 18443,9283 18649,9283 18649,9490 18546,9490 Z "/>
 <path fill="rgb(0,69,134)" stroke="none" d="M 18546,9977 L 18443,9977 18443,9771 18649,9771 18649,9977 18546,9977 Z "/>
 <path fill="rgb(255,66,14)" stroke="none" d="M 18546,10465 L 18443,10465 18443,10258 18649,10258 18649,10465 18546,10465 Z "/>
 <path fill="rgb(255,211,32)" stroke="none" d="M 18546,11341 L 18443,11341 18443,11134 18649,11134 18649,11341 18546,11341 Z "/>
 <text class="SVGTextShape"><tspan class="TextParagraph"><tspan class="TextPosition" x="18747" y="4142"><tspan font-family="Liberation Sans, sans-serif" font-size="346px" font-weight="400" lengthAdjust="spacingAndGlyphs" textLength="874" fill="rgb(0,0,0)" stroke="none" style="white-space: pre">small </tspan></tspan></tspan></text>
 <text class="SVGTextShape"><tspan class="TextParagraph"><tspan class="TextPosition" x="18747" y="4630"><tspan font-family="Liberation Sans, sans-serif" font-size="346px" font-weight="400" lengthAdjust="spacingAndGlyphs" textLength="3724" fill="rgb(0,0,0)" stroke="none" style="white-space: pre">AS13335 Cloudflare, Inc.</tspan></tspan></tspan></text>
 <text class="SVGTextShape"><tspan class="TextParagraph"><tspan class="TextPosition" x="18747" y="5117"><tspan font-family="Liberation Sans, sans-serif" font-size="346px" font-weight="400" lengthAdjust="spacingAndGlyphs" textLength="3387" fill="rgb(0,0,0)" stroke="none" style="white-space: pre">AS680 TU-CHEMNITZ</tspan></tspan></tspan></text>
 <text class="SVGTextShape"><tspan class="TextParagraph"><tspan class="TextPosition" x="18747" y="5604"><tspan font-family="Liberation Sans, sans-serif" font-size="346px" font-weight="400" lengthAdjust="spacingAndGlyphs" textLength="3071" fill="rgb(0,0,0)" stroke="none" style="white-space: pre">AS513 CERN-GPN2</tspan></tspan></tspan></text>
 <text class="SVGTextShape"><tspan class="TextParagraph"><tspan class="TextPosition" x="18747" y="6092"><tspan font-family="Liberation Sans, sans-serif" font-size="346px" font-weight="400" lengthAdjust="spacingAndGlyphs" textLength="2532" fill="rgb(0,0,0)" stroke="none" style="white-space: pre">AS2734 Coresite</tspan></tspan></tspan></text>
 <text class="SVGTextShape"><tspan class="TextParagraph"><tspan class="TextPosition" x="18747" y="6579"><tspan font-family="Liberation Sans, sans-serif" font-size="346px" font-weight="400" lengthAdjust="spacingAndGlyphs" textLength="4746" fill="rgb(0,0,0)" stroke="none" style="white-space: pre">AS4538 CMI  (Customer Route)</tspan></tspan></tspan></text>
 <text class="SVGTextShape"><tspan class="TextParagraph"><tspan class="TextPosition" x="18747" y="7067"><tspan font-family="Liberation Sans, sans-serif" font-size="346px" font-weight="400" lengthAdjust="spacingAndGlyphs" textLength="4765" fill="rgb(0,0,0)" stroke="none" style="white-space: pre">AS7979 SERVERS.COM AMS7</tspan></tspan></tspan></text>
 <text class="SVGTextShape"><tspan class="TextParagraph"><tspan class="TextPosition" x="18747" y="7554"><tspan font-family="Liberation Sans, sans-serif" font-size="346px" font-weight="400" lengthAdjust="spacingAndGlyphs" textLength="4858" fill="rgb(0,0,0)" stroke="none" style="white-space: pre">AS23428 ServerForge Fremont1</tspan></tspan></tspan></text>
 <text class="SVGTextShape"><tspan class="TextParagraph"><tspan class="TextPosition" x="18747" y="8042"><tspan font-family="Liberation Sans, sans-serif" font-size="346px" font-weight="400" lengthAdjust="spacingAndGlyphs" textLength="3034" fill="rgb(0,0,0)" stroke="none" style="white-space: pre">AS553 BELWUE-V6</tspan></tspan></tspan></text>
 <text class="SVGTextShape"><tspan class="TextParagraph"><tspan class="TextPosition" x="18747" y="8529"><tspan font-family="Liberation Sans, sans-serif" font-size="346px" font-weight="400" lengthAdjust="spacingAndGlyphs" textLength="2885" fill="rgb(0,0,0)" stroke="none" style="white-space: pre">AS2200 RENATER</tspan></tspan></tspan></text>
 <text class="SVGTextShape"><tspan class="TextParagraph"><tspan class="TextPosition" x="18747" y="9016"><tspan font-family="Liberation Sans, sans-serif" font-size="346px" font-weight="400" lengthAdjust="spacingAndGlyphs" textLength="3592" fill="rgb(0,0,0)" stroke="none" style="white-space: pre">AS2852 CESNET6-TCZ</tspan></tspan></tspan></text>
 <text class="SVGTextShape"><tspan class="TextParagraph"><tspan class="TextPosition" x="18747" y="9504"><tspan font-family="Liberation Sans, sans-serif" font-size="346px" font-weight="400" lengthAdjust="spacingAndGlyphs" textLength="5585" fill="rgb(0,0,0)" stroke="none" style="white-space: pre">AS4134 Proxy-registered route object</tspan></tspan></tspan></text>
 <text class="SVGTextShape"><tspan class="TextParagraph"><tspan class="TextPosition" x="18747" y="9991"><tspan font-family="Liberation Sans, sans-serif" font-size="346px" font-weight="400" lengthAdjust="spacingAndGlyphs" textLength="4431" fill="rgb(0,0,0)" stroke="none" style="white-space: pre">AS7575 Swinburne University</tspan></tspan></tspan></text>
 <text class="SVGTextShape"><tspan class="TextParagraph"><tspan class="TextPosition" x="18747" y="10479"><tspan font-family="Liberation Sans, sans-serif" font-size="346px" font-weight="400" lengthAdjust="spacingAndGlyphs" textLength="4541" fill="rgb(0,0,0)" stroke="none" style="white-space: pre">AS7712 CIDC INFORMATION </tspan></tspan><tspan class="TextPosition" x="18747" y="10867"><tspan font-family="Liberation Sans, sans-serif" font-size="346px" font-weight="400" lengthAdjust="spacingAndGlyphs" textLength="3945" fill="rgb(0,0,0)" stroke="none" style="white-space: pre">TECHNOLOGY CO.; LTD.</tspan></tspan></tspan></text>
 <text class="SVGTextShape"><tspan class="TextParagraph"><tspan class="TextPosition" x="18747" y="11355"><tspan font-family="Liberation Sans, sans-serif" font-size="346px" font-weight="400" lengthAdjust="spacingAndGlyphs" textLength="4336" fill="rgb(0,0,0)" stroke="none" style="white-space: pre">AS26073 OBJECT-CFRCTL-</tspan></tspan><tspan class="TextPosition" x="18747" y="11743"><tspan font-family="Liberation Sans, sans-serif" font-size="346px" font-weight="400" lengthAdjust="spacingAndGlyphs" textLength="6089" fill="rgb(0,0,0)" stroke="none" style="white-space: pre">d65af47d-98b2-4f7a-a663-11fc8d49a6c0</tspan></tspan></tspan></text>
</svg>